<svg xmlns="http://www.w3.org/2000/svg" xmlns:xlink="http://www.w3.org/1999/xlink" id="Layer_1" x="0" y="0" version="1.1" viewBox="0 0 1200 675" style="enable-background:new 0 0 1200 675" xml:space="preserve"><style type="text/css">.st0{fill:#fff}.st42{fill:#ccc}.st59{fill:#939393}.st142{fill:#f47b67}.st183{fill:#f15a24}.st193{fill:#22b573}.st194{fill:#e8e8e8}.st195{fill:#a8a8a8}.st196{fill:#777}.st197{fill:#4c4c4c}.st199{fill:#3f3f3f}.st205{fill:#bfbfbf}.st229,.st233{fill:#fff;stroke:#c6c6c6;stroke-width:.5499;stroke-miterlimit:10}.st233{fill:none;stroke:#3f3f3f;stroke-width:.5501}.st234{font-family:&apos;Lato-Light&apos;}.st235{font-size:13.2025px}.st236{font-size:8.8026px}.st237,.st238{fill:#e8e8e8;stroke:#c6c6c6;stroke-width:.5595;stroke-miterlimit:10}.st238{fill:none}.st239{font-size:7.7073px}.st240{fill:none;stroke:#929292;stroke-width:.5207;stroke-miterlimit:10}.st241,.st242,.st243{fill:#fff;stroke:#c6c6c6;stroke-width:.5204;stroke-miterlimit:10}.st242,.st243{fill:none;stroke:#939393;stroke-width:1.0407}.st243{stroke:#f47b67;stroke-width:.5501}</style><g><path d="M630.64,184.03H422.33c-3,0-5.43-2.43-5.43-5.43v-29.14c0-3,2.43-5.43,5.43-5.43h209.29 c2.92,0,5.29,2.37,5.29,5.29v28.46C636.9,181.22,634.08,184.03,630.64,184.03z" class="st42"/><rect width="220" height="7" x="416.9" y="153.03" class="st194"/><path d="M471.17,177.03h-45.55c-1.5,0-2.72-1.22-2.72-2.72v-7.55c0-1.5,1.22-2.72,2.72-2.72h45.55 c1.5,0,2.72,1.22,2.72,2.72v7.55C473.9,175.81,472.68,177.03,471.17,177.03z" class="st195"/><path d="M468.45,175.03h-3.12c-1.9,0-3.44-1.54-3.44-3.44v-3.12c0-1.9,1.54-3.44,3.44-3.44h3.12 c1.9,0,3.44,1.54,3.44,3.44v3.12C471.9,173.49,470.36,175.03,468.45,175.03z" class="st196"/><path d="M455.45,175.03h-3.12c-1.9,0-3.44-1.54-3.44-3.44v-3.12c0-1.9,1.54-3.44,3.44-3.44h3.12 c1.9,0,3.44,1.54,3.44,3.44v3.12C458.9,173.49,457.36,175.03,455.45,175.03z" class="st196"/><path d="M443.45,175.03h-3.12c-1.9,0-3.44-1.54-3.44-3.44v-3.12c0-1.9,1.54-3.44,3.44-3.44h3.12 c1.9,0,3.44,1.54,3.44,3.44v3.12C446.9,173.49,445.36,175.03,443.45,175.03z" class="st196"/><path d="M430.45,175.03h-3.12c-1.9,0-3.44-1.54-3.44-3.44v-3.12c0-1.9,1.54-3.44,3.44-3.44h3.12 c1.9,0,3.44,1.54,3.44,3.44v3.12C433.9,173.49,432.36,175.03,430.45,175.03z" class="st196"/><path d="M428.9,161.62l-0.17,0.1l-0.11-0.43l0.69-0.26h0.59v2h-1V161.62z" class="st197"/><path d="M440.9,163.08l0.74-0.65c0.08-0.06,0.14-0.12,0.19-0.17c0.05-0.05,0.1-0.1,0.13-0.14 c0.03-0.04,0.06-0.09,0.07-0.13c0.01-0.04,0.02-0.09,0.02-0.14c0-0.1-0.03-0.18-0.09-0.23c-0.06-0.05-0.14-0.08-0.23-0.08 c-0.09,0-0.18,0.03-0.25,0.08c-0.07,0.05-0.15,0.13-0.24,0.24l-0.37-0.3c0.06-0.08,0.12-0.15,0.18-0.21 c0.06-0.06,0.13-0.11,0.19-0.16c0.07-0.04,0.15-0.07,0.23-0.1c0.08-0.02,0.18-0.03,0.29-0.03c0.12,0,0.24,0.02,0.34,0.05 c0.1,0.04,0.19,0.08,0.26,0.15c0.07,0.06,0.13,0.14,0.17,0.23c0.04,0.09-0.63,0.3-0.63,0.3v0.01c0,0,0.67,0.19,0.65,0.27 c-0.03,0.08-0.06,0.15-0.12,0.22c-0.05,0.07-0.12,0.14-0.2,0.21c-0.08,0.07-0.17,0.15-0.28,0.23l-0.39,0.29h1.33v1h-2V163.08z" class="st197"/><path d="M454.34,163.54c-0.22,0-0.4-0.04-0.55-0.12c-0.15-0.08-0.28-0.18-0.38-0.3l0.36-0.35 c0.08,0.09,0.17,0.16,0.26,0.21c0.09,0.05,0.2,0.07,0.32,0.07c0.1,0,0.18-0.03,0.24-0.08c0.06-0.05,0.09-0.12,0.31-0.21v-0.01 c-0.21-0.1-0.26-0.17-0.34-0.22c-0.08-0.05-0.2-0.08-0.34-0.51H454l-0.08,0.1l0.57-1.1h-0.59l0,0h1v0.47l-0.34,0.58 c0.08,0.01,0.16,0.04,0.24,0.06c0.08,0.03,0.15,0.07,0.21,0.12c0.06,0.05,0.11,0.12,0.15,0.2c0.04,0.08,0.75,0.29,0.75,0.29v0.01 c0,0-0.72,0.22-0.76,0.31c-0.04,0.09-0.1,0.18-0.17,0.25c-0.07,0.07-0.17,0.13-0.27,0.16 C454.59,163.52,454.47,163.54,454.34,163.54z" class="st197"/><path d="M466.9,163.03h-1.77l-0.09-0.39l1.39-1.61h0.47v1h1v1l0,0v1h-1V163.03z M466.9,163.03v-0.74l-0.64,0.74 H466.9z" class="st197"/><circle cx="425.4" cy="166.53" r=".5" class="st193"/><circle cx="432.4" cy="166.53" r=".5" class="st193"/><circle cx="438.4" cy="166.53" r=".5" class="st193"/><circle cx="445.4" cy="166.53" r=".5" class="st193"/><circle cx="451.4" cy="166.53" r=".5" class="st193"/><circle cx="457.4" cy="166.53" r=".5" class="st193"/><circle cx="463.4" cy="166.53" r=".5" class="st193"/><circle cx="470.4" cy="166.53" r=".5" class="st193"/><path d="M523.17,177.03h-45.55c-1.5,0-2.72-1.22-2.72-2.72v-7.55c0-1.5,1.22-2.72,2.72-2.72h45.55 c1.5,0,2.72,1.22,2.72,2.72v7.55C525.9,175.81,524.68,177.03,523.17,177.03z" class="st195"/><path d="M521.45,175.03h-3.12c-1.9,0-3.44-1.54-3.44-3.44v-3.12c0-1.9,1.54-3.44,3.44-3.44h3.12 c1.9,0,3.44,1.54,3.44,3.44v3.12C524.9,173.49,523.36,175.03,521.45,175.03z" class="st196"/><path d="M508.45,175.03h-3.12c-1.9,0-3.44-1.54-3.44-3.44v-3.12c0-1.9,1.54-3.44,3.44-3.44h3.12 c1.9,0,3.44,1.54,3.44,3.44v3.12C511.9,173.49,510.36,175.03,508.45,175.03z" class="st196"/><path d="M496.45,175.03h-3.12c-1.9,0-3.44-1.54-3.44-3.44v-3.12c0-1.9,1.54-3.44,3.44-3.44h3.12 c1.9,0,3.44,1.54,3.44,3.44v3.12C499.9,173.49,498.36,175.03,496.45,175.03z" class="st196"/><path d="M483.45,175.03h-3.12c-1.9,0-3.44-1.54-3.44-3.44v-3.12c0-1.9,1.54-3.44,3.44-3.44h3.12 c1.9,0,3.44,1.54,3.44,3.44v3.12C486.9,173.49,485.36,175.03,483.45,175.03z" class="st196"/><path d="M481.92,163.56c-0.19,0-0.36-0.03-0.51-0.09c-0.14-0.06-0.27-0.15-0.39-0.26l0.32-0.38 c0.09,0.08,0.18,0.15,0.27,0.19c0.09,0.05,0.19,0.07,0.3,0.07c0.12,0,0.22-0.03,0.29-0.09c0.07-0.06,0.69-0.25,0.69-0.25v-0.01 c0,0-0.62-0.18-0.7-0.24c-0.08-0.06-0.18-0.09-0.31-0.09c-0.08,0-0.15,0.01-0.21,0.03c-0.07,0.02-0.13,0.04-0.19,0.06l-0.3-0.2 l0.07-1.27h1.64l0,0h-1.19l-0.03,0.97c0.05-0.01,0.1-0.02,0.14-0.03c0.05-0.01,0.1-0.01,0.17-0.01c0.12,0,0.22,0.01,0.33,0.04 c0.1,0.03,0.19,0.07,0.27,0.14c0.08,0.06,0.14,0.14,0.18,0.24c0.04,0.1,0.07,0.21,0.13,0.35v0.01c-0.06,0.13-0.09,0.24-0.13,0.34 c-0.04,0.1-0.1,0.19-0.18,0.26c-0.08,0.07-0.18,0.13-0.29,0.17C482.18,163.54,482.06,163.56,481.92,163.56z" class="st197"/><path d="M494.93,163.63c-0.17,0-0.31-0.02-0.42-0.07c-0.12-0.05-0.22-0.11-0.31-0.2c-0.09-0.09-0.16-0.21-0.22-0.36 c-0.05-0.15-0.08-0.35-0.08-0.6v-0.01c0-0.2,0.02-0.38,0.07-0.55c0.04-0.17,0.11-0.32,0.2-0.44c0.09-0.12,0.21-0.22,0.35-0.29 c0.14-0.07,0.3-0.11,0.49-0.11c0.09,0,0.17,0.01,0.24,0.02c0.07,0.01,0.14,0.03,0.2,0.05c0.06,0.02,0.12,0.05,0.18,0.09 c0.06,0.03,0.11,0.07,0.17,0.12l-0.29,0.43c-0.04-0.03-0.08-0.06-0.12-0.09c-0.04-0.03-0.08-0.05-0.12-0.06 c-0.04-0.02-0.08-0.03-0.13-0.04c-0.05-0.01-0.1-0.01-0.15-0.01c-0.08,0-0.15,0.02-0.21,0.05c-0.06,0.03-0.11,0.07-0.15,0.12 c-0.04,0.05-0.08,0.11-0.1,0.19c-0.02,0.07-0.04,0.15-0.05,0.23c0.06-0.04,0.13-0.08,0.22-0.11c0.08-0.03,0.18-0.05,0.31-0.05 s0.24,0.02,0.35,0.05c0.11,0.04,0.2,0.09,0.28,0.15c0.08,0.07,0.14,0.15,0.19,0.25c0.05,0.1,0.07,0.22,0.07,0.35v0.01 c0,0.13-0.02,0.25-0.07,0.36c-0.05,0.11-0.12,0.2-0.2,0.28c-0.09,0.08-0.19,0.14-0.31,0.18 C495.2,163.61,495.07,163.63,494.93,163.63z M494.52,163.1c0.13,0,0.23-0.03,0.3-0.1c0.07-0.07,0.11-0.15,0.07-0.25v-0.01 c0.04-0.1,0-0.19-0.07-0.25c-0.07-0.06-0.18-0.1-0.31-0.1c-0.13,0-0.23,0.03-0.3,0.1c-0.07,0.06-0.11,0.15-0.31,0.25v0.01 c0.21,0.1,0.24,0.19,0.32,0.25C494.29,163.07,494.39,163.1,494.52,163.1z" class="st197"/><path d="M507.28,161.03h-1.38l0,0h2v-0.06l-1.11,2.06h-0.61L507.28,161.03z" class="st197"/><path d="M519.67,163.55c-0.13,0-0.25-0.02-0.37-0.05c-0.11-0.03-0.21-0.08-0.29-0.14c-0.08-0.06-0.15-0.13-0.19-0.22 c-0.05-0.08-0.92-0.28-0.92-0.28v-0.01c0,0,0.89-0.26,0.95-0.35c0.06-0.09,0.16-0.16,0.29-0.22c-0.09-0.06-0.17-0.13-0.22-0.21 c-0.05-0.08-0.02-0.32-0.02-0.32v-0.01c0,0-0.05-0.18-0.01-0.26c0.04-0.08,0.1-0.15,0.17-0.21c0.07-0.06,0.16-0.11,0.26-0.14 c0.1-0.03,0.22-0.05,0.34-0.05c0.13,0,0.24,0.02,0.34,0.05c0.1,0.03,0.19,0.08,0.27,0.14c0.07,0.06,0.13,0.13,0.17,0.21 c0.04,0.08-0.56,0.26-0.56,0.26v0.01c0,0,0.59,0.24,0.53,0.32c-0.05,0.08-0.13,0.15-0.22,0.21c0.12,0.06,0.22,0.14,0.28,0.22 c0.07,0.09,0.41,0.34,0.41,0.34v0.01c0,0-0.33,0.21-0.37,0.3c-0.05,0.09-0.11,0.16-0.19,0.22c-0.08,0.06-0.18,0.11-0.29,0.14 C519.93,163.53,519.8,163.55,519.67,163.55z M519.67,163.12c0.13,0,0.23-0.03,0.3-0.09c0.07-0.06,0.11-0.13-0.08-0.21v-0.01 c0.19-0.09,0.15-0.17,0.07-0.22c-0.08-0.05-0.18-0.08-0.3-0.08c-0.12,0-0.22,0.03-0.3,0.08c-0.08,0.05-0.12,0.12-0.48,0.22v0.01 c0.36,0.08,0.4,0.15,0.47,0.21C519.44,163.09,519.54,163.12,519.67,163.12z M519.67,162.1c0.1,0,0.19-0.03,0.25-0.08 c0.06-0.05,0.09-0.12-0.02-0.21v-0.01c0.12-0.07,0.09-0.14,0.03-0.19c-0.06-0.06-0.14-0.09-0.25-0.09c-0.11,0-0.19,0.03-0.25,0.08 c-0.06,0.06-0.09,0.12-0.52,0.19v0.01c0.43,0.08,0.46,0.15,0.53,0.21C519.48,162.07,519.57,162.1,519.67,162.1z" class="st197"/><circle cx="478.4" cy="166.53" r=".5" class="st193"/><circle cx="485.4" cy="166.53" r=".5" class="st193"/><circle cx="491.4" cy="166.53" r=".5" class="st193"/><circle cx="498.4" cy="166.53" r=".5" class="st193"/><circle cx="503.4" cy="166.53" r=".5" class="st193"/><circle cx="510.4" cy="166.53" r=".5" class="st193"/><circle cx="516.4" cy="166.53" r=".5" class="st193"/><circle cx="523.4" cy="166.53" r=".5" class="st193"/><g><circle cx="419.4" cy="170.53" r="1.5" class="st193"/></g><path d="M576.17,177.03h-45.55c-1.5,0-2.72-1.22-2.72-2.72v-7.55c0-1.5,1.22-2.72,2.72-2.72h45.55 c1.5,0,2.72,1.22,2.72,2.72v7.55C578.9,175.81,577.68,177.03,576.17,177.03z" class="st195"/><path d="M574.45,175.03h-3.12c-1.9,0-3.44-1.54-3.44-3.44v-3.12c0-1.9,1.54-3.44,3.44-3.44h3.12 c1.9,0,3.44,1.54,3.44,3.44v3.12C577.9,173.49,576.36,175.03,574.45,175.03z" class="st196"/><path d="M561.45,175.03h-3.12c-1.9,0-3.44-1.54-3.44-3.44v-3.12c0-1.9,1.54-3.44,3.44-3.44h3.12 c1.9,0,3.44,1.54,3.44,3.44v3.12C564.9,173.49,563.36,175.03,561.45,175.03z" class="st196"/><path d="M548.45,175.03h-3.12c-1.9,0-3.44-1.54-3.44-3.44v-3.12c0-1.9,1.54-3.44,3.44-3.44h3.12 c1.9,0,3.44,1.54,3.44,3.44v3.12C551.9,173.49,550.36,175.03,548.45,175.03z" class="st196"/><path d="M536.45,175.03h-3.12c-1.9,0-3.44-1.54-3.44-3.44v-3.12c0-1.9,1.54-3.44,3.44-3.44h3.12 c1.9,0,3.44,1.54,3.44,3.44v3.12C539.9,173.49,538.36,175.03,536.45,175.03z" class="st196"/><path d="M534.79,163.53c-0.19,0-0.34-0.03-0.47-0.08c-0.13-0.06-0.25-0.13-0.36-0.22l0.29-0.42 c0.09,0.07,0.18,0.13,0.26,0.16s0.18,0.05,0.29,0.05c0.16,0,0.28-0.05,0.36-0.16c0.08-0.11,0.13-0.25,0.15-0.42 c-0.06,0.05-0.14,0.1-0.22,0.13c-0.08,0.03-0.18,0.05-0.29,0.05c-0.14,0-0.26-0.02-0.37-0.06c-0.11-0.04-0.21-0.09-0.29-0.16 c-0.08-0.07-0.14-0.16-0.18-0.26c-0.04-0.1-0.06-0.22-0.06-0.34v-0.01c0-0.13,0.02-0.25,0.07-0.36s0.11-0.2,0.2-0.28 c0.08-0.08,0.19-0.14,0.31-0.18c0.12-0.04,0.25-0.07,0.39-0.07c0.08,0,0.16,0.01,0.23,0.02c0.07,0.01,0.13,0.03,0.19,0.05 c0.06,0.02,0.11,0.05,0.16,0.09c0.05,0.03,0.1,0.08,0.15,0.12c0.05,0.05,0.09,0.1,0.12,0.16c0.04,0.06,0.07,0.13,0.09,0.2 c0.03,0.08,0.05,0.16,0.06,0.26c0.01,0.1,0.02,0.21,0.02,0.34v0.01c0,0.21-0.02,0.39-0.07,0.56c-0.05,0.17-0.12,0.32-0.21,0.44 c-0.09,0.12-0.21,0.21-0.35,0.28C535.13,163.5,534.97,163.53,534.79,163.53z M534.72,162.16c0.13,0,0.23-0.03,0.3-0.1 c0.07-0.07,0.11-0.15-0.13-0.25v-0.01c0.24-0.11,0.2-0.19,0.13-0.26c-0.07-0.07-0.18-0.1-0.31-0.1c-0.13,0-0.23,0.03-0.3,0.1 c-0.07,0.07-0.11,0.15-0.51,0.26v0.01c0.41,0.11,0.45,0.19,0.52,0.26C534.49,162.13,534.59,162.16,534.72,162.16z" class="st197"/><g><path d="M545.9,161.54l-0.31,0.1l-0.11-0.43l0.69-0.18h0.73v2h-1V161.54z" class="st197"/><path d="M547.89,163.39c-0.15,0-0.29-0.03-0.41-0.09c-0.12-0.06-0.23-0.14-0.32-0.24c-0.09-0.1-0.15-0.23-0.2-0.37 c-0.05-0.14-0.07-0.29-0.07-0.46v-0.01c0-0.16,0.02-0.32,0.07-0.46s0.12-0.26,0.2-0.37c0.09-0.11,0.19-0.19,0.32-0.25 c0.12-0.06,0.26-0.09,0.41-0.09c0.15,0,0.28,0.03,0.41,0.09c0.12,0.06,0.23,0.14,0.32,0.24c0.09,0.1,0.15,0.23,0.2,0.37 c0.05,0.14,0.07,0.29,0.07,0.46v0.01c0,0.16-0.02,0.32-0.07,0.46c-0.05,0.14-0.12,0.26-0.2,0.37c-0.09,0.11-0.19,0.19-0.32,0.25 C548.18,163.36,548.04,163.39,547.89,163.39z M548.4,162.95c0.08,0,0.14-0.02,0.21-0.05c0.06-0.04,0.11-0.09,0.16-0.15 c0.04-0.06,0.08-0.14,0.1-0.23c0.02-0.09,0.03-0.18,0.03-0.29v-0.01c0-0.1-0.01-0.2-0.04-0.29c-0.02-0.09-0.06-0.16-0.1-0.23 c-0.04-0.07-0.1-0.12-0.16-0.15c-0.06-0.04-0.13-0.06-0.2-0.06c-0.08,0-0.14,0.02-0.21,0.05c-0.06,0.04-0.11,0.09-0.16,0.15 c-0.04,0.06-0.08,0.14-0.1,0.23c-0.02,0.09-0.04,0.18-0.04,0.29v0.01c0,0.1,0.01,0.2,0.04,0.29c0.02,0.09,0.06,0.17,0.1,0.23 c0.04,0.06,0.1,0.11,0.16,0.15C548.26,162.93,548.32,162.95,548.4,162.95z" class="st197"/></g><g><path d="M558.9,161.55l-0.14,0.1l-0.11-0.43l0.69-0.19h0.56v2h-1V161.55z" class="st197"/><path d="M560.9,161.55l-0.7,0.1l-0.11-0.43l0.69-0.19h-0.88v2h1V161.55z" class="st197"/></g><g><path d="M570.9,161.56l0.04,0.1l-0.11-0.43l0.69-0.2h0.39v2h-1V161.56z" class="st197"/><path d="M571.9,163.02l1.25-0.65c0.08-0.06,0.14-0.12,0.19-0.17c0.05-0.05,0.1-0.1,0.13-0.14 c0.03-0.04,0.06-0.09,0.07-0.13c0.01-0.04,0.02-0.09,0.02-0.14c0-0.1-0.03-0.18-0.09-0.23c-0.06-0.05-0.14-0.08-0.23-0.08 c-0.09,0-0.18,0.03-0.25,0.08c-0.07,0.05-0.15,0.13-0.24,0.24l-0.37-0.3c0.06-0.08,0.12-0.15,0.18-0.21 c0.06-0.06,0.13-0.11,0.19-0.16c0.07-0.04,0.15-0.07,0.23-0.1c0.08-0.02,0.18-0.03,0.29-0.03c0.12,0,0.24,0.02,0.34,0.05 c0.1,0.04,0.19,0.08,0.26,0.15c0.07,0.06,0.13,0.14,0.17,0.23c0.04,0.09-0.14,0.3-0.14,0.3v0.01c0,0,0.19,0.19,0.16,0.27 c-0.03,0.08-0.06,0.15-0.12,0.22c-0.05,0.07-0.12,0.14-0.2,0.21c-0.08,0.07-0.17,0.15-0.28,0.23l-0.39,0.35h1.82v1h-3V163.02z" class="st197"/></g><circle cx="531.4" cy="166.53" r=".5" class="st193"/><circle cx="538.4" cy="166.53" r=".5" class="st193"/><circle cx="544.4" cy="166.53" r=".5" class="st193"/><circle cx="550.4" cy="166.53" r=".5" class="st193"/><circle cx="556.4" cy="166.53" r=".5" class="st193"/><circle cx="563.4" cy="166.53" r=".5" class="st193"/><circle cx="569.4" cy="166.53" r=".5" class="st193"/><circle cx="575.4" cy="166.53" r=".5" class="st193"/><path d="M629.17,177.03h-45.55c-1.5,0-2.72-1.22-2.72-2.72v-7.55c0-1.5,1.22-2.72,2.72-2.72h45.55 c1.5,0,2.72,1.22,2.72,2.72v7.55C631.9,175.81,630.68,177.03,629.17,177.03z" class="st195"/><path d="M626.45,175.03h-3.12c-1.9,0-3.44-1.54-3.44-3.44v-3.12c0-1.9,1.54-3.44,3.44-3.44h3.12 c1.9,0,3.44,1.54,3.44,3.44v3.12C629.9,173.49,628.36,175.03,626.45,175.03z" class="st196"/><path d="M614.45,175.03h-3.12c-1.9,0-3.44-1.54-3.44-3.44v-3.12c0-1.9,1.54-3.44,3.44-3.44h3.12 c1.9,0,3.44,1.54,3.44,3.44v3.12C617.9,173.49,616.36,175.03,614.45,175.03z" class="st196"/><path d="M601.45,175.03h-3.12c-1.9,0-3.44-1.54-3.44-3.44v-3.12c0-1.9,1.54-3.44,3.44-3.44h3.12 c1.9,0,3.44,1.54,3.44,3.44v3.12C604.9,173.49,603.36,175.03,601.45,175.03z" class="st196"/><path d="M589.45,175.03h-3.12c-1.9,0-3.44-1.54-3.44-3.44v-3.12c0-1.9,1.54-3.44,3.44-3.44h3.12 c1.9,0,3.44,1.54,3.44,3.44v3.12C592.9,173.49,591.36,175.03,589.45,175.03z" class="st196"/><g><path d="M586.9,161.77l-0.81,0.1l-0.11-0.43l0.69-0.41h-0.76v2h1V161.77z" class="st197"/><path d="M588.4,163.69c-0.22,0-0.4-0.04-0.55-0.12c-0.15-0.08-0.28-0.18-0.38-0.3l0.36-0.35 c0.08,0.09,0.17,0.16,0.26,0.21c0.09,0.05,0.2,0.07,0.32,0.07c0.1,0,0.18-0.03,0.24-0.08c0.06-0.05,0.09-0.12,0.25-0.21v-0.01 c-0.16-0.1-0.2-0.17-0.28-0.22c-0.08-0.05-0.2-0.08-0.34,0.34h-0.22l-0.08-0.75l0.57-1.25h-0.65l0,0h1v0.62l-0.28,0.58 c0.08,0.01,0.16,0.04,0.24,0.06c0.08,0.03,0.15,0.07,0.21,0.12c0.06,0.05,0.11,0.12,0.15,0.2c0.04,0.08,0.69,0.29,0.69,0.29v0.01 c0,0-0.66,0.22-0.7,0.31c-0.04,0.09-0.1,0.18-0.17,0.25c-0.07,0.07-0.17,0.13-0.27,0.16C588.65,163.67,588.53,163.69,588.4,163.69 z" class="st197"/></g><g><path d="M598.9,161.79l-0.36,0.1l-0.11-0.43l0.69-0.43h0.78v2h-1V161.79z" class="st197"/><path d="M600.9,163.03h-1.77l-0.09-0.39l1.39-1.61h0.47v1h1v1l0,0v1h-1V163.03z M600.9,163.03v-0.74l-0.64,0.74 H600.9z" class="st197"/></g><g><path d="M612.9,161.77l-1.67,0.1l-0.11-0.43l0.69-0.41h0.09v2h1V161.77z" class="st197"/><path d="M613.52,163.69c-0.19,0-0.36-0.03-0.51-0.09c-0.14-0.06-0.27-0.15-0.39-0.26l0.32-0.38 c0.09,0.08,0.18,0.15,0.27,0.19c0.09,0.05,0.19,0.07,0.3,0.07c0.12,0,0.22-0.03,0.29-0.09c0.07-0.06,0.09-0.25,0.09-0.25v-0.01 c0,0-0.02-0.18-0.1-0.24s-0.18-0.09-0.31-0.09c-0.08,0-0.15,0.01-0.21,0.03c-0.07,0.02-0.13,0.04-0.19,0.06l-0.3-0.2l0.07-1.4 h2.04l0,0h-1.59l-0.03,1.1c0.05-0.01,0.1-0.02,0.14-0.03c0.05-0.01,0.1-0.01,0.17-0.01c0.12,0,0.22,0.01,0.33,0.04 c0.1,0.03,0.19,0.07,0.27,0.14c0.08,0.06,0.14,0.14,0.18,0.24c0.04,0.1,0.07,0.21,0.53,0.35v0.01c-0.46,0.13-0.48,0.24-0.53,0.34 c-0.04,0.1-0.1,0.19-0.18,0.26c-0.08,0.07-0.18,0.13-0.29,0.17S613.66,163.69,613.52,163.69z" class="st197"/></g><g><path d="M623.9,161.79l-0.14,0.1l-0.11-0.43l0.69-0.42h0.57v2h-1V161.79z" class="st197"/><path d="M625.93,163.78c-0.17,0-0.31-0.02-0.42-0.07c-0.12-0.05-0.22-0.11-0.31-0.2c-0.09-0.09-0.16-0.21-0.22-0.36 c-0.05-0.15-0.08-0.35-0.08-0.6v-0.01c0-0.2,0.02-0.38,0.07-0.55c0.04-0.17,0.11-0.32,0.2-0.44c0.09-0.12,0.21-0.22,0.35-0.29 c0.14-0.07,0.3-0.11,0.49-0.11c0.09,0,0.17,0.01,0.24,0.02s0.14,0.03,0.2,0.05c0.06,0.02,0.12,0.05,0.18,0.09 c0.06,0.03,0.11,0.07,0.17,0.12l-0.29,0.43c-0.04-0.03-0.08-0.06-0.12-0.09c-0.04-0.03-0.08-0.05-0.12-0.06s-0.08-0.03-0.13-0.04 c-0.05-0.01-0.1-0.01-0.15-0.01c-0.08,0-0.15,0.02-0.21,0.05c-0.06,0.03-0.11,0.07-0.15,0.12c-0.04,0.05-0.08,0.11-0.1,0.19 c-0.02,0.07-0.04,0.15-0.05,0.23c0.06-0.04,0.13-0.08,0.22-0.11c0.08-0.03,0.18-0.05,0.31-0.05s0.24,0.02,0.35,0.05 c0.11,0.04,0.2,0.09,0.28,0.15s0.14,0.15,0.19,0.25c0.05,0.1,0.07,0.22,0.07,0.35v0.01c0,0.13-0.02,0.25-0.07,0.36 c-0.05,0.11-0.12,0.2-0.2,0.28c-0.09,0.08-0.19,0.14-0.31,0.18C626.2,163.76,626.07,163.78,625.93,163.78z M626.14,163.25 c0.13,0,0.23-0.03,0.3-0.1c0.07-0.07,0.11-0.15,0.45-0.25v-0.01c-0.34-0.1-0.38-0.19-0.45-0.25s-0.18-0.1-0.31-0.1 c-0.13,0-0.23,0.03-0.3,0.1c-0.07,0.06-0.11,0.15,0.06,0.25v0.01c-0.17,0.1-0.13,0.19-0.06,0.25 C625.91,163.21,626.01,163.25,626.14,163.25z" class="st197"/></g><circle cx="584.4" cy="166.53" r=".5" class="st193"/><circle cx="591.4" cy="166.53" r=".5" class="st193"/><circle cx="596.4" cy="166.53" r=".5" class="st193"/><circle cx="603.4" cy="166.53" r=".5" class="st193"/><circle cx="609.4" cy="166.53" r=".5" class="st193"/><circle cx="616.4" cy="166.53" r=".5" class="st193"/><circle cx="622.4" cy="166.53" r=".5" class="st193"/><circle cx="628.4" cy="166.53" r=".5" class="st193"/></g><g><g><line x1="161.4" x2="161.4" y1="366.65" y2="319.41" class="st233"/><g><rect width="2.91" height="2.91" x="159.94" y="365.13" class="st199"/></g><g><rect width="2.91" height="2.91" x="159.94" y="318.03" class="st199"/></g></g></g><g><g><path d="M161.4,261.65v-42.34c0-5.38,4.4-9.78,9.78-9.78l249.44-0.02c5.38,0,9.73-4.4,9.67-9.78l-0.36-30.31" class="st233"/><g><rect width="2.91" height="2.91" x="159.94" y="260.13" class="st199"/></g><g><rect width="2.91" height="2.91" x="428.47" y="168.03" class="st199" transform="matrix(0.9999 -0.0118 0.0118 0.9999 -1.9642 5.0698)"/></g></g></g><g><g><path d="M400.4,260.65v-29.34c0-5.38,4.4-9.78,9.78-9.78l22.44,0c5.38,0,9.78-4.4,9.78-9.78v-43.34" class="st233"/><g><rect width="2.91" height="2.91" x="398.94" y="259.13" class="st199"/></g><g><rect width="2.91" height="2.91" x="440.94" y="167.03" class="st199"/></g></g></g><g><g><path d="M640.4,260.65v-29.34c0-5.38-4.4-9.78-9.78-9.78l-166.44,0c-5.38,0-9.78-4.4-9.78-9.78v-43.34" class="st233"/><g><rect width="2.91" height="2.91" x="638.94" y="259.13" class="st199"/></g><g><rect width="2.91" height="2.91" x="452.94" y="167.03" class="st199"/></g></g></g><g><g><path d="M880.4,261.65v-42.34c0-5.38-4.4-9.78-9.78-9.78l-393.44-0.02c-5.38,0-9.78-4.4-9.78-9.78v-30.31" class="st233"/><g><rect width="2.91" height="2.91" x="878.94" y="260.13" class="st199"/></g><g><rect width="2.91" height="2.91" x="465.94" y="168.03" class="st199"/></g></g></g><g><g><line x1="400.4" x2="400.4" y1="366.65" y2="319.41" class="st233"/><g><rect width="2.91" height="2.91" x="398.94" y="365.13" class="st199"/></g><g><rect width="2.91" height="2.91" x="398.94" y="318.03" class="st199"/></g></g></g><g><g><line x1="640.4" x2="640.4" y1="366.65" y2="319.41" class="st233"/><g><rect width="2.91" height="2.91" x="638.94" y="365.13" class="st199"/></g><g><rect width="2.91" height="2.91" x="638.94" y="318.03" class="st199"/></g></g></g><g><g><line x1="880.4" x2="880.4" y1="366.65" y2="319.41" class="st233"/><g><rect width="2.91" height="2.91" x="878.94" y="365.13" class="st199"/></g><g><rect width="2.91" height="2.91" x="878.94" y="318.03" class="st199"/></g></g></g><g><g><path d="M667.4,0.03l-0.01,185.72c0,5.38-4.4,9.78-9.78,9.78l-22.43,0c-5.38,0-9.78-4.4-9.78-9.78v-17.34" class="st233"/><g><rect width="2.91" height="2.91" x="623.94" y="167.03" class="st199"/></g></g></g><g><text class="st234 st235" transform="matrix(1 0 0 1 1058.1827 71.6582)">INTERNET</text></g><g><text transform="matrix(1 0 0 1 1058.1827 154.1963)"><tspan x="0" y="0" class="st234 st235">16-PORT</tspan><tspan x="0" y="15.84" class="st234 st235">10 GIGABIT</tspan><tspan x="0" y="31.69" class="st234 st235">ETHERNET</tspan><tspan x="0" y="47.53" class="st234 st235">SWITCH</tspan></text></g><g><text class="st234 st235" transform="matrix(1 0 0 1 1058.1827 297.1026)">4 SERVERS</text></g><g><text transform="matrix(1 0 0 1 1058.1827 486.7344)"><tspan x="0" y="0" class="st234 st235">16 8TB</tspan><tspan x="0" y="15.84" class="st234 st235">DRIVES</tspan></text></g><text class="st234 st236" transform="matrix(1 0 0 1 115.3242 257.0996)">NODE 1</text><text class="st234 st236" transform="matrix(1 0 0 1 355.7667 257.0996)">NODE 2</text><text class="st234 st236" transform="matrix(1 0 0 1 596.2081 257.0996)">NODE 3</text><text class="st234 st236" transform="matrix(1 0 0 1 836.65 257.0996)">NODE 4</text><text class="st234 st236" transform="matrix(1 0 0 1 174.1304 257.0996)">192.168.1.11:9000</text><text class="st234 st236" transform="matrix(1 0 0 1 409.397 257.0996)">192.168.1.12:9000</text><text class="st234 st236" transform="matrix(1 0 0 1 650.1651 257.0996)">192.168.1.13:9000</text><text class="st234 st236" transform="matrix(1 0 0 1 888.9766 257.0996)">192.168.1.14:9000</text><g><path d="M724.77,318.53H556.02c-2.55,0-4.63-2.07-4.63-4.63v-46.75c0-2.55,2.07-4.63,4.63-4.63h168.75 c2.55,0,4.63,2.07,4.63,4.63v46.75C729.4,316.46,727.33,318.53,724.77,318.53z" class="st237"/><g><circle cx="651.9" cy="286.03" r="3" class="st59"/><circle cx="663.9" cy="286.03" r="3" class="st59"/><circle cx="674.9" cy="286.03" r="3" class="st59"/><circle cx="686.9" cy="286.03" r="3" class="st59"/><circle cx="697.9" cy="286.03" r="3" class="st59"/><circle cx="657.9" cy="294.03" r="3" class="st59"/><circle cx="669.9" cy="294.03" r="3" class="st59"/><circle cx="680.9" cy="294.03" r="3" class="st59"/><circle cx="692.9" cy="294.03" r="3" class="st59"/><circle cx="704.9" cy="294.03" r="3" class="st59"/></g><circle cx="584.9" cy="290.03" r="10.5" class="st229"/></g><g><path d="M484.77,318.53H316.02c-2.55,0-4.63-2.07-4.63-4.63v-46.75c0-2.55,2.07-4.63,4.63-4.63h168.75 c2.55,0,4.63,2.07,4.63,4.63v46.75C489.4,316.46,487.33,318.53,484.77,318.53z" class="st237"/><g><circle cx="412.9" cy="286.03" r="3" class="st59"/><circle cx="423.9" cy="286.03" r="3" class="st59"/><circle cx="435.9" cy="286.03" r="3" class="st59"/><circle cx="446.9" cy="286.03" r="3" class="st59"/><circle cx="458.9" cy="286.03" r="3" class="st59"/><circle cx="418.9" cy="294.03" r="3" class="st59"/><circle cx="429.9" cy="294.03" r="3" class="st59"/><circle cx="441.9" cy="294.03" r="3" class="st59"/><circle cx="452.9" cy="294.03" r="3" class="st59"/><circle cx="464.9" cy="294.03" r="3" class="st59"/></g><circle cx="345.9" cy="290.03" r="10.5" class="st229"/></g><g><path d="M245.77,318.53H77.02c-2.55,0-4.63-2.07-4.63-4.63v-46.75c0-2.55,2.07-4.63,4.63-4.63h168.75 c2.55,0,4.63,2.07,4.63,4.63v46.75C250.4,316.46,248.33,318.53,245.77,318.53z" class="st237"/><g><circle cx="172.9" cy="286.03" r="3" class="st59"/><circle cx="184.9" cy="286.03" r="3" class="st59"/><circle cx="195.9" cy="286.03" r="3" class="st59"/><circle cx="207.9" cy="286.03" r="3" class="st59"/><circle cx="218.9" cy="286.03" r="3" class="st59"/><circle cx="178.9" cy="294.03" r="3" class="st59"/><circle cx="190.9" cy="294.03" r="3" class="st59"/><circle cx="201.9" cy="294.03" r="3" class="st59"/><circle cx="213.9" cy="294.03" r="3" class="st59"/><circle cx="224.9" cy="294.03" r="3" class="st59"/></g><circle cx="105.9" cy="290.03" r="10.5" class="st229"/></g><g><path d="M964.77,318.53H796.02c-2.55,0-4.63-2.07-4.63-4.63v-46.75c0-2.55,2.07-4.63,4.63-4.63h168.75 c2.55,0,4.63,2.07,4.63,4.63v46.75C969.4,316.46,967.33,318.53,964.77,318.53z" class="st237"/><g><circle cx="891.9" cy="286.03" r="3" class="st59"/><circle cx="902.9" cy="286.03" r="3" class="st59"/><circle cx="914.9" cy="286.03" r="3" class="st59"/><circle cx="926.9" cy="286.03" r="3" class="st59"/><circle cx="937.9" cy="286.03" r="3" class="st59"/><circle cx="897.9" cy="294.03" r="3" class="st59"/><circle cx="908.9" cy="294.03" r="3" class="st59"/><circle cx="920.9" cy="294.03" r="3" class="st59"/><circle cx="932.9" cy="294.03" r="3" class="st59"/><circle cx="943.9" cy="294.03" r="3" class="st59"/></g><circle cx="824.9" cy="290.03" r="10.5" class="st229"/></g><g><g><path d="M724.01,588.53H556.78c-2.97,0-5.39-2.41-5.39-5.39V373.92c0-2.97,2.41-5.39,5.39-5.39h167.23 c2.97,0,5.39,2.41,5.39,5.39v209.23C729.4,586.12,726.99,588.53,724.01,588.53z" class="st194"/><path d="M724.01,588.53H556.78c-2.97,0-5.39-2.41-5.39-5.39V373.92c0-2.97,2.41-5.39,5.39-5.39h167.23 c2.97,0,5.39,2.41,5.39,5.39v209.23C729.4,586.12,726.99,588.53,724.01,588.53z" class="st238"/></g><text class="st234 st239" transform="matrix(1 0 0 1 664.3538 578.9746)">EXPORT 4</text><text class="st234 st239" transform="matrix(1 0 0 1 580.3082 578.9746)">EXPORT 3</text><text class="st234 st239" transform="matrix(1 0 0 1 581.3546 475.3555)">EXPORT 1</text><text class="st234 st239" transform="matrix(1 0 0 1 664.3538 474.9268)">EXPORT 2</text><g><path d="M628.9,388.28c0-1.24-1.01-2.25-2.25-2.25H598.4h-28.25c-1.24,0-2.25,1.01-2.25,2.25v75.5 c0,1.24,1.01,2.25,2.25,2.25h28.25h28.25c1.24,0,2.25-1.01,2.25-2.25V388.28z" class="st205"/><path d="M598.4,466.03l0-11.86c2.62-0.07,5.16-0.5,7.56-1.22l6.14,4.47c0.13,0.1,0.26,0.19,0.39,0.28l0.04,0.03l0,0 c1.7,1.12,3.82,1.67,6.07,1.36c3.74-0.51,6.81-3.45,7.45-7.17c0.66-3.86-1.19-7.37-4.18-9.15c0.19-0.25,3.79-5.1,4.11-6.25h2.92" class="st240"/><circle cx="598.87" cy="423.63" r="27.68" class="st241"/><circle cx="572.9" cy="390.03" r="2" class="st59"/><circle cx="624.9" cy="390.03" r="2" class="st59"/><circle cx="572.9" cy="462.03" r="2" class="st59"/><circle cx="624.9" cy="462.03" r="2" class="st59"/><circle cx="598.77" cy="423.63" r="2.21" class="st59"/><circle cx="598.77" cy="423.63" r="2.21" class="st59"/><circle cx="598.77" cy="423.63" r="5.24" class="st242"/><path d="M620.21,444.29l-29.29-8.99c-0.11-0.03-0.22-0.05-0.34-0.05c-0.75,0-1.35,0.6-1.35,1.35 c0,0.44,0.21,0.82,0.53,1.07l0,0l24.49,17.83l0,0c1,0.66,2.2,1.04,3.49,1.04c3.52,0,6.37-2.85,6.37-6.37 C624.12,447.53,622.51,445.26,620.21,444.29z" class="st183"/><g><circle cx="617.9" cy="450.03" r="4" class="st0"/></g></g><g><path d="M712.9,388.28c0-1.24-1.01-2.25-2.25-2.25H682.4h-28.25c-1.24,0-2.25,1.01-2.25,2.25v75.5 c0,1.24,1.01,2.25,2.25,2.25h28.25h28.25c1.24,0,2.25-1.01,2.25-2.25V388.28z" class="st205"/><path d="M682.4,466.03l0-11.86c2.62-0.07,5.16-0.5,7.56-1.22l6.14,4.47c0.13,0.1,0.26,0.19,0.39,0.28l0.04,0.03l0,0 c1.7,1.12,3.82,1.67,6.07,1.36c3.74-0.51,6.81-3.45,7.45-7.17c0.66-3.86-1.19-7.37-4.18-9.15c0.19-0.25,3.79-5.1,4.11-6.25h2.92" class="st240"/><circle cx="681.91" cy="423.63" r="27.68" class="st241"/><circle cx="655.9" cy="390.03" r="2" class="st59"/><circle cx="707.9" cy="390.03" r="2" class="st59"/><circle cx="655.9" cy="462.03" r="2" class="st59"/><circle cx="707.9" cy="462.03" r="2" class="st59"/><circle cx="681.8" cy="423.63" r="2.21" class="st59"/><circle cx="681.8" cy="423.63" r="2.21" class="st59"/><circle cx="681.8" cy="423.63" r="5.24" class="st242"/><path d="M703.25,444.29l-29.29-8.99c-0.11-0.03-0.22-0.05-0.34-0.05c-0.75,0-1.35,0.6-1.35,1.35 c0,0.44,0.21,0.82,0.53,1.07l0,0l24.49,17.83l0,0c1,0.66,2.2,1.04,3.49,1.04c3.52,0,6.37-2.85,6.37-6.37 C707.16,447.53,705.54,445.26,703.25,444.29z" class="st183"/><g><circle cx="700.9" cy="450.03" r="4" class="st0"/></g></g><g><path d="M628.9,492.28c0-1.24-1.01-2.25-2.25-2.25H598.4h-28.25c-1.24,0-2.25,1.01-2.25,2.25v75.5 c0,1.24,1.01,2.25,2.25,2.25h28.25h28.25c1.24,0,2.25-1.01,2.25-2.25V492.28z" class="st205"/><path d="M598.4,570.03l0-11.86c2.62-0.07,5.16-0.5,7.56-1.22l6.14,4.47c0.13,0.1,0.26,0.19,0.39,0.28l0.04,0.03l0,0 c1.7,1.12,3.82,1.67,6.07,1.36c3.74-0.51,6.81-3.45,7.45-7.17c0.66-3.86-1.19-7.37-4.18-9.15c0.19-0.25,3.79-5.1,4.11-6.25h2.92" class="st240"/><circle cx="598.87" cy="527.78" r="27.68" class="st241"/><circle cx="572.9" cy="494.03" r="2" class="st59"/><circle cx="624.9" cy="494.03" r="2" class="st59"/><circle cx="572.9" cy="566.03" r="2" class="st59"/><circle cx="624.9" cy="566.03" r="2" class="st59"/><circle cx="598.77" cy="527.78" r="2.21" class="st59"/><circle cx="598.77" cy="527.78" r="2.21" class="st59"/><circle cx="598.77" cy="527.78" r="5.24" class="st242"/><path d="M620.21,548.44l-29.29-8.99c-0.11-0.03-0.22-0.05-0.34-0.05c-0.75,0-1.35,0.6-1.35,1.35 c0,0.44,0.21,0.82,0.53,1.07l0,0l24.49,17.83l0,0c1,0.66,2.2,1.04,3.49,1.04c3.52,0,6.37-2.85,6.37-6.37 C624.12,551.67,622.51,549.41,620.21,548.44z" class="st183"/><g><circle cx="617.9" cy="554.03" r="4" class="st0"/></g></g><g><path d="M712.9,492.28c0-1.24-1.01-2.25-2.25-2.25H682.4h-28.25c-1.24,0-2.25,1.01-2.25,2.25v75.5 c0,1.24,1.01,2.25,2.25,2.25h28.25h28.25c1.24,0,2.25-1.01,2.25-2.25V492.28z" class="st205"/><path d="M682.4,570.03l0-11.86c2.62-0.07,5.16-0.5,7.56-1.22l6.14,4.47c0.13,0.1,0.26,0.19,0.39,0.28l0.04,0.03l0,0 c1.7,1.12,3.82,1.67,6.07,1.36c3.74-0.51,6.81-3.45,7.45-7.17c0.66-3.86-1.19-7.37-4.18-9.15c0.19-0.25,3.79-5.1,4.11-6.25h2.92" class="st240"/><circle cx="681.91" cy="527.78" r="27.68" class="st241"/><circle cx="655.9" cy="494.03" r="2" class="st59"/><circle cx="707.9" cy="494.03" r="2" class="st59"/><circle cx="655.9" cy="566.03" r="2" class="st59"/><circle cx="707.9" cy="566.03" r="2" class="st59"/><circle cx="681.8" cy="527.78" r="2.21" class="st59"/><circle cx="681.8" cy="527.78" r="2.21" class="st59"/><circle cx="681.8" cy="527.78" r="5.24" class="st242"/><path d="M703.25,548.44l-29.29-8.99c-0.11-0.03-0.22-0.05-0.34-0.05c-0.75,0-1.35,0.6-1.35,1.35 c0,0.44,0.21,0.82,0.53,1.07l0,0l24.49,17.83l0,0c1,0.66,2.2,1.04,3.49,1.04c3.52,0,6.37-2.85,6.37-6.37 C707.16,551.67,705.54,549.41,703.25,548.44z" class="st183"/><g><circle cx="700.9" cy="554.03" r="4" class="st0"/></g></g></g><g><g><path d="M484.01,588.53H316.78c-2.97,0-5.39-2.41-5.39-5.39V373.92c0-2.97,2.41-5.39,5.39-5.39h167.23 c2.97,0,5.39,2.41,5.39,5.39v209.23C489.4,586.12,486.99,588.53,484.01,588.53z" class="st194"/><path d="M484.01,588.53H316.78c-2.97,0-5.39-2.41-5.39-5.39V373.92c0-2.97,2.41-5.39,5.39-5.39h167.23 c2.97,0,5.39,2.41,5.39,5.39v209.23C489.4,586.12,486.99,588.53,484.01,588.53z" class="st238"/></g><text class="st234 st239" transform="matrix(1 0 0 1 424.7813 578.9746)">EXPORT 4</text><text class="st234 st239" transform="matrix(1 0 0 1 340.7357 578.9746)">EXPORT 3</text><text class="st234 st239" transform="matrix(1 0 0 1 341.7818 475.3555)">EXPORT 1</text><text class="st234 st239" transform="matrix(1 0 0 1 424.7813 474.9268)">EXPORT 2</text><g><path d="M389.9,388.28c0-1.24-1.01-2.25-2.25-2.25H359.4h-28.25c-1.24,0-2.25,1.01-2.25,2.25v75.5 c0,1.24,1.01,2.25,2.25,2.25h28.25h28.25c1.24,0,2.25-1.01,2.25-2.25V388.28z" class="st205"/><path d="M359.4,466.03l0-11.86c2.62-0.07,5.16-0.5,7.56-1.22l6.14,4.47c0.13,0.1,0.26,0.19,0.39,0.28l0.04,0.03l0,0 c1.7,1.12,3.82,1.67,6.07,1.36c3.74-0.51,6.81-3.45,7.45-7.17c0.66-3.86-1.19-7.37-4.18-9.15c0.19-0.25,3.79-5.1,4.11-6.25h2.92" class="st240"/><circle cx="359.3" cy="423.63" r="27.68" class="st241"/><circle cx="332.9" cy="390.03" r="2" class="st59"/><circle cx="385.9" cy="390.03" r="2" class="st59"/><circle cx="332.9" cy="462.03" r="2" class="st59"/><circle cx="385.9" cy="462.03" r="2" class="st59"/><circle cx="359.19" cy="423.63" r="2.21" class="st59"/><circle cx="359.19" cy="423.63" r="2.21" class="st59"/><circle cx="359.19" cy="423.63" r="5.24" class="st242"/><path d="M380.64,444.29l-29.29-8.99c-0.11-0.03-0.22-0.05-0.34-0.05c-0.75,0-1.35,0.6-1.35,1.35 c0,0.44,0.21,0.82,0.53,1.07l0,0l24.49,17.83l0,0c1,0.66,2.2,1.04,3.49,1.04c3.52,0,6.37-2.85,6.37-6.37 C384.55,447.53,382.93,445.26,380.64,444.29z" class="st183"/><g><circle cx="377.9" cy="450.03" r="4" class="st0"/></g></g><g><path d="M472.9,388.28c0-1.24-1.01-2.25-2.25-2.25H442.4h-28.25c-1.24,0-2.25,1.01-2.25,2.25v75.5 c0,1.24,1.01,2.25,2.25,2.25h28.25h28.25c1.24,0,2.25-1.01,2.25-2.25V388.28z" class="st205"/><path d="M442.4,466.03l0-11.86c2.62-0.07,5.16-0.5,7.56-1.22l6.14,4.47c0.13,0.1,0.26,0.19,0.39,0.28l0.04,0.03l0,0 c1.7,1.12,3.82,1.67,6.07,1.36c3.74-0.51,6.81-3.45,7.45-7.17c0.66-3.86-1.19-7.37-4.18-9.15c0.19-0.25,3.79-5.1,4.11-6.25h2.92" class="st240"/><circle cx="442.33" cy="423.63" r="27.68" class="st241"/><circle cx="415.9" cy="390.03" r="2" class="st59"/><circle cx="468.9" cy="390.03" r="2" class="st59"/><circle cx="415.9" cy="462.03" r="2" class="st59"/><circle cx="468.9" cy="462.03" r="2" class="st59"/><circle cx="442.23" cy="423.63" r="2.21" class="st59"/><circle cx="442.23" cy="423.63" r="2.21" class="st59"/><circle cx="442.23" cy="423.63" r="5.24" class="st242"/><path d="M463.68,444.29l-29.29-8.99c-0.11-0.03-0.22-0.05-0.34-0.05c-0.75,0-1.35,0.6-1.35,1.35 c0,0.44,0.21,0.82,0.53,1.07l0,0l24.49,17.83l0,0c1,0.66,2.2,1.04,3.49,1.04c3.52,0,6.37-2.85,6.37-6.37 C467.58,447.53,465.97,445.26,463.68,444.29z" class="st183"/><g><circle cx="460.9" cy="450.03" r="4" class="st0"/></g></g><g><path d="M389.9,492.28c0-1.24-1.01-2.25-2.25-2.25H359.4h-28.25c-1.24,0-2.25,1.01-2.25,2.25v75.5 c0,1.24,1.01,2.25,2.25,2.25h28.25h28.25c1.24,0,2.25-1.01,2.25-2.25V492.28z" class="st205"/><path d="M359.4,570.03l0-11.86c2.62-0.07,5.16-0.5,7.56-1.22l6.14,4.47c0.13,0.1,0.26,0.19,0.39,0.28l0.04,0.03l0,0 c1.7,1.12,3.82,1.67,6.07,1.36c3.74-0.51,6.81-3.45,7.45-7.17c0.66-3.86-1.19-7.37-4.18-9.15c0.19-0.25,3.79-5.1,4.11-6.25h2.92" class="st240"/><circle cx="359.3" cy="527.78" r="27.68" class="st241"/><circle cx="332.9" cy="494.03" r="2" class="st59"/><circle cx="385.9" cy="494.03" r="2" class="st59"/><circle cx="332.9" cy="566.03" r="2" class="st59"/><circle cx="385.9" cy="566.03" r="2" class="st59"/><circle cx="359.19" cy="527.78" r="2.21" class="st59"/><circle cx="359.19" cy="527.78" r="2.21" class="st59"/><circle cx="359.19" cy="527.78" r="5.24" class="st242"/><path d="M380.64,548.44l-29.29-8.99c-0.11-0.03-0.22-0.05-0.34-0.05c-0.75,0-1.35,0.6-1.35,1.35 c0,0.44,0.21,0.82,0.53,1.07l0,0l24.49,17.83l0,0c1,0.66,2.2,1.04,3.49,1.04c3.52,0,6.37-2.85,6.37-6.37 C384.55,551.67,382.93,549.41,380.64,548.44z" class="st183"/><g><circle cx="377.9" cy="554.03" r="4" class="st0"/></g></g><g><path d="M472.9,492.28c0-1.24-1.01-2.25-2.25-2.25H442.4h-28.25c-1.24,0-2.25,1.01-2.25,2.25v75.5 c0,1.24,1.01,2.25,2.25,2.25h28.25h28.25c1.24,0,2.25-1.01,2.25-2.25V492.28z" class="st205"/><path d="M442.4,570.03l0-11.86c2.62-0.07,5.16-0.5,7.56-1.22l6.14,4.47c0.13,0.1,0.26,0.19,0.39,0.28l0.04,0.03l0,0 c1.7,1.12,3.82,1.67,6.07,1.36c3.74-0.51,6.81-3.45,7.45-7.17c0.66-3.86-1.19-7.37-4.18-9.15c0.19-0.25,3.79-5.1,4.11-6.25h2.92" class="st240"/><circle cx="442.33" cy="527.78" r="27.68" class="st241"/><circle cx="415.9" cy="494.03" r="2" class="st59"/><circle cx="468.9" cy="494.03" r="2" class="st59"/><circle cx="415.9" cy="566.03" r="2" class="st59"/><circle cx="468.9" cy="566.03" r="2" class="st59"/><circle cx="442.23" cy="527.78" r="2.21" class="st59"/><circle cx="442.23" cy="527.78" r="2.21" class="st59"/><circle cx="442.23" cy="527.78" r="5.24" class="st242"/><path d="M463.68,548.44l-29.29-8.99c-0.11-0.03-0.22-0.05-0.34-0.05c-0.75,0-1.35,0.6-1.35,1.35 c0,0.44,0.21,0.82,0.53,1.07l0,0l24.49,17.83l0,0c1,0.66,2.2,1.04,3.49,1.04c3.52,0,6.37-2.85,6.37-6.37 C467.58,551.67,465.97,549.41,463.68,548.44z" class="st183"/><g><circle cx="460.9" cy="554.03" r="4" class="st0"/></g></g></g><g><g><path d="M245.01,588.53H77.78c-2.97,0-5.39-2.41-5.39-5.39V373.92c0-2.97,2.41-5.39,5.39-5.39h167.23 c2.97,0,5.39,2.41,5.39,5.39v209.23C250.4,586.12,247.99,588.53,245.01,588.53z" class="st194"/><path d="M245.01,588.53H77.78c-2.97,0-5.39-2.41-5.39-5.39V373.92c0-2.97,2.41-5.39,5.39-5.39h167.23 c2.97,0,5.39,2.41,5.39,5.39v209.23C250.4,586.12,247.99,588.53,245.01,588.53z" class="st238"/></g><text class="st234 st239" transform="matrix(1 0 0 1 185.1546 578.9746)">EXPORT 4</text><text class="st234 st239" transform="matrix(1 0 0 1 101.109 578.9746)">EXPORT 3</text><text class="st234 st239" transform="matrix(1 0 0 1 102.1552 475.3555)">EXPORT 1</text><text class="st234 st239" transform="matrix(1 0 0 1 185.1546 474.9268)">EXPORT 2</text><g><path d="M149.9,388.28c0-1.24-1.01-2.25-2.25-2.25H119.4H91.15c-1.24,0-2.25,1.01-2.25,2.25v75.5 c0,1.24,1.01,2.25,2.25,2.25h28.25h28.25c1.24,0,2.25-1.01,2.25-2.25V388.28z" class="st205"/><path d="M119.4,466.03l0-11.86c2.62-0.07,5.16-0.5,7.56-1.22l6.14,4.47c0.13,0.1,0.26,0.19,0.39,0.28l0.04,0.03l0,0 c1.7,1.12,3.82,1.67,6.07,1.36c3.74-0.51,6.81-3.45,7.45-7.17c0.66-3.86-1.19-7.37-4.18-9.15c0.19-0.25,3.79-5.1,4.11-6.25h2.92" class="st240"/><circle cx="119.67" cy="423.63" r="27.68" class="st241"/><circle cx="93.9" cy="390.03" r="2" class="st59"/><circle cx="145.9" cy="390.03" r="2" class="st59"/><circle cx="93.9" cy="462.03" r="2" class="st59"/><circle cx="145.9" cy="462.03" r="2" class="st59"/><circle cx="119.57" cy="423.63" r="2.21" class="st59"/><circle cx="119.57" cy="423.63" r="2.21" class="st59"/><circle cx="119.57" cy="423.63" r="5.24" class="st242"/><path d="M141.01,444.29l-29.29-8.99c-0.11-0.03-0.22-0.05-0.34-0.05c-0.75,0-1.35,0.6-1.35,1.35 c0,0.44,0.21,0.82,0.53,1.07l0,0l24.49,17.83l0,0c1,0.66,2.2,1.04,3.49,1.04c3.52,0,6.37-2.85,6.37-6.37 C144.92,447.53,143.31,445.26,141.01,444.29z" class="st183"/><g><circle cx="138.9" cy="450.03" r="4" class="st0"/></g></g><g><path d="M232.9,388.28c0-1.24-1.01-2.25-2.25-2.25H202.4h-28.25c-1.24,0-2.25,1.01-2.25,2.25v75.5 c0,1.24,1.01,2.25,2.25,2.25h28.25h28.25c1.24,0,2.25-1.01,2.25-2.25V388.28z" class="st205"/><path d="M202.4,466.03l0-11.86c2.62-0.07,5.16-0.5,7.56-1.22l6.14,4.47c0.13,0.1,0.26,0.19,0.39,0.28l0.04,0.03l0,0 c1.7,1.12,3.82,1.67,6.07,1.36c3.74-0.51,6.81-3.45,7.45-7.17c0.66-3.86-1.19-7.37-4.18-9.15c0.19-0.25,3.79-5.1,4.11-6.25h2.92" class="st240"/><circle cx="202.71" cy="423.63" r="27.68" class="st241"/><circle cx="176.9" cy="390.03" r="2" class="st59"/><circle cx="228.9" cy="390.03" r="2" class="st59"/><circle cx="176.9" cy="462.03" r="2" class="st59"/><circle cx="228.9" cy="462.03" r="2" class="st59"/><circle cx="202.6" cy="423.63" r="2.21" class="st59"/><circle cx="202.6" cy="423.63" r="2.21" class="st59"/><circle cx="202.6" cy="423.63" r="5.24" class="st242"/><path d="M224.05,444.29l-29.29-8.99c-0.11-0.03-0.22-0.05-0.34-0.05c-0.75,0-1.35,0.6-1.35,1.35 c0,0.44,0.21,0.82,0.53,1.07l0,0l24.49,17.83l0,0c1,0.66,2.2,1.04,3.49,1.04c3.52,0,6.37-2.85,6.37-6.37 C227.96,447.53,226.34,445.26,224.05,444.29z" class="st183"/><g><circle cx="221.9" cy="450.03" r="4" class="st0"/></g></g><g><path d="M149.9,492.28c0-1.24-1.01-2.25-2.25-2.25H119.4H91.15c-1.24,0-2.25,1.01-2.25,2.25v75.5 c0,1.24,1.01,2.25,2.25,2.25h28.25h28.25c1.24,0,2.25-1.01,2.25-2.25V492.28z" class="st205"/><path d="M119.4,570.03l0-11.86c2.62-0.07,5.16-0.5,7.56-1.22l6.14,4.47c0.13,0.1,0.26,0.19,0.39,0.28l0.04,0.03l0,0 c1.7,1.12,3.82,1.67,6.07,1.36c3.74-0.51,6.81-3.45,7.45-7.17c0.66-3.86-1.19-7.37-4.18-9.15c0.19-0.25,3.79-5.1,4.11-6.25h2.92" class="st240"/><circle cx="119.67" cy="527.78" r="27.68" class="st241"/><circle cx="93.9" cy="494.03" r="2" class="st59"/><circle cx="145.9" cy="494.03" r="2" class="st59"/><circle cx="93.9" cy="566.03" r="2" class="st59"/><circle cx="145.9" cy="566.03" r="2" class="st59"/><circle cx="119.57" cy="527.78" r="2.21" class="st59"/><circle cx="119.57" cy="527.78" r="2.21" class="st59"/><circle cx="119.57" cy="527.78" r="5.24" class="st242"/><path d="M141.01,548.44l-29.29-8.99c-0.11-0.03-0.22-0.05-0.34-0.05c-0.75,0-1.35,0.6-1.35,1.35 c0,0.44,0.21,0.82,0.53,1.07l0,0l24.49,17.83l0,0c1,0.66,2.2,1.04,3.49,1.04c3.52,0,6.37-2.85,6.37-6.37 C144.92,551.67,143.31,549.41,141.01,548.44z" class="st183"/><g><circle cx="138.9" cy="554.03" r="4" class="st0"/></g></g><g><path d="M232.9,492.28c0-1.24-1.01-2.25-2.25-2.25H202.4h-28.25c-1.24,0-2.25,1.01-2.25,2.25v75.5 c0,1.24,1.01,2.25,2.25,2.25h28.25h28.25c1.24,0,2.25-1.01,2.25-2.25V492.28z" class="st205"/><path d="M202.4,570.03l0-11.86c2.62-0.07,5.16-0.5,7.56-1.22l6.14,4.47c0.13,0.1,0.26,0.19,0.39,0.28l0.04,0.03l0,0 c1.7,1.12,3.82,1.67,6.07,1.36c3.74-0.51,6.81-3.45,7.45-7.17c0.66-3.86-1.19-7.37-4.18-9.15c0.19-0.25,3.79-5.1,4.11-6.25h2.92" class="st240"/><circle cx="202.71" cy="527.78" r="27.68" class="st241"/><circle cx="176.9" cy="494.03" r="2" class="st59"/><circle cx="228.9" cy="494.03" r="2" class="st59"/><circle cx="176.9" cy="566.03" r="2" class="st59"/><circle cx="228.9" cy="566.03" r="2" class="st59"/><circle cx="202.6" cy="527.78" r="2.21" class="st59"/><circle cx="202.6" cy="527.78" r="2.21" class="st59"/><circle cx="202.6" cy="527.78" r="5.24" class="st242"/><path d="M224.05,548.44l-29.29-8.99c-0.11-0.03-0.22-0.05-0.34-0.05c-0.75,0-1.35,0.6-1.35,1.35 c0,0.44,0.21,0.82,0.53,1.07l0,0l24.49,17.83l0,0c1,0.66,2.2,1.04,3.49,1.04c3.52,0,6.37-2.85,6.37-6.37 C227.96,551.67,226.34,549.41,224.05,548.44z" class="st183"/><g><circle cx="221.9" cy="554.03" r="4" class="st0"/></g></g></g><g><g><line x1="616.86" x2="1045.9" y1="148.53" y2="148.53" class="st243"/><g><circle cx="616.97" cy="148.53" r="2.07" class="st142"/></g></g></g><g><g><line x1="667.86" x2="1047.9" y1="66.53" y2="66.53" class="st243"/><g><circle cx="667.97" cy="66.53" r="2.07" class="st142"/></g></g></g><g><g><line x1="958.86" x2="1046.9" y1="291.53" y2="291.53" class="st243"/><g><circle cx="958.97" cy="291.53" r="2.07" class="st142"/></g></g></g><g><g><path d="M964.01,588.53H796.78c-2.97,0-5.39-2.41-5.39-5.39V373.92c0-2.97,2.41-5.39,5.39-5.39h167.23 c2.97,0,5.39,2.41,5.39,5.39v209.23C969.4,586.12,966.99,588.53,964.01,588.53z" class="st194"/><path d="M964.01,588.53H796.78c-2.97,0-5.39-2.41-5.39-5.39V373.92c0-2.97,2.41-5.39,5.39-5.39h167.23 c2.97,0,5.39,2.41,5.39,5.39v209.23C969.4,586.12,966.99,588.53,964.01,588.53z" class="st238"/></g><text class="st234 st239" transform="matrix(1 0 0 1 903.9805 578.9746)">EXPORT 4</text><text class="st234 st239" transform="matrix(1 0 0 1 819.9351 578.9746)">EXPORT 3</text><text class="st234 st239" transform="matrix(1 0 0 1 820.9815 475.3555)">EXPORT 1</text><text class="st234 st239" transform="matrix(1 0 0 1 903.9808 474.9268)">EXPORT 2</text><g><path d="M868.9,388.28c0-1.24-1.01-2.25-2.25-2.25H838.4h-28.25c-1.24,0-2.25,1.01-2.25,2.25v75.5 c0,1.24,1.01,2.25,2.25,2.25h28.25h28.25c1.24,0,2.25-1.01,2.25-2.25V388.28z" class="st205"/><path d="M838.4,466.03l0-11.86c2.62-0.07,5.16-0.5,7.56-1.22l6.14,4.47c0.13,0.1,0.26,0.19,0.39,0.28l0.04,0.03l0,0 c1.7,1.12,3.82,1.67,6.07,1.36c3.74-0.51,6.81-3.45,7.45-7.17c0.66-3.86-1.19-7.37-4.18-9.15c0.19-0.25,3.79-5.1,4.11-6.25h2.92" class="st240"/><circle cx="838.5" cy="423.63" r="27.68" class="st241"/><circle cx="811.9" cy="390.03" r="2" class="st59"/><circle cx="864.9" cy="390.03" r="2" class="st59"/><circle cx="811.9" cy="462.03" r="2" class="st59"/><circle cx="864.9" cy="462.03" r="2" class="st59"/><circle cx="838.39" cy="423.63" r="2.21" class="st59"/><circle cx="838.39" cy="423.63" r="2.21" class="st59"/><circle cx="838.39" cy="423.63" r="5.24" class="st242"/><path d="M859.84,444.29l-29.29-8.99c-0.11-0.03-0.22-0.05-0.34-0.05c-0.75,0-1.35,0.6-1.35,1.35 c0,0.44,0.21,0.82,0.53,1.07l0,0l24.49,17.83l0,0c1,0.66,2.2,1.04,3.49,1.04c3.52,0,6.37-2.85,6.37-6.37 C863.75,447.53,862.13,445.26,859.84,444.29z" class="st183"/><g><circle cx="856.9" cy="450.03" r="4" class="st0"/></g></g><g><path d="M951.9,388.28c0-1.24-1.01-2.25-2.25-2.25H921.4h-28.25c-1.24,0-2.25,1.01-2.25,2.25v75.5 c0,1.24,1.01,2.25,2.25,2.25h28.25h28.25c1.24,0,2.25-1.01,2.25-2.25V388.28z" class="st205"/><path d="M921.4,466.03l0-11.86c2.62-0.07,5.16-0.5,7.56-1.22l6.14,4.47c0.13,0.1,0.26,0.19,0.39,0.28l0.04,0.03l0,0 c1.7,1.12,3.82,1.67,6.07,1.36c3.74-0.51,6.81-3.45,7.45-7.17c0.66-3.86-1.19-7.37-4.18-9.15c0.19-0.25,3.79-5.1,4.11-6.25h2.92" class="st240"/><circle cx="921.53" cy="423.63" r="27.68" class="st241"/><circle cx="894.9" cy="390.03" r="2" class="st59"/><circle cx="947.9" cy="390.03" r="2" class="st59"/><circle cx="894.9" cy="462.03" r="2" class="st59"/><circle cx="947.9" cy="462.03" r="2" class="st59"/><circle cx="921.43" cy="423.63" r="2.21" class="st59"/><circle cx="921.43" cy="423.63" r="2.21" class="st59"/><circle cx="921.43" cy="423.63" r="5.24" class="st242"/><path d="M942.87,444.29l-29.29-8.99c-0.11-0.03-0.22-0.05-0.34-0.05c-0.75,0-1.35,0.6-1.35,1.35 c0,0.44,0.21,0.82,0.53,1.07l0,0l24.49,17.83l0,0c1,0.66,2.2,1.04,3.49,1.04c3.52,0,6.37-2.85,6.37-6.37 C946.78,447.53,945.17,445.26,942.87,444.29z" class="st183"/><g><circle cx="940.9" cy="450.03" r="4" class="st0"/></g></g><g><path d="M868.9,492.28c0-1.24-1.01-2.25-2.25-2.25H838.4h-28.25c-1.24,0-2.25,1.01-2.25,2.25v75.5 c0,1.24,1.01,2.25,2.25,2.25h28.25h28.25c1.24,0,2.25-1.01,2.25-2.25V492.28z" class="st205"/><path d="M838.4,570.03l0-11.86c2.62-0.07,5.16-0.5,7.56-1.22l6.14,4.47c0.13,0.1,0.26,0.19,0.39,0.28l0.04,0.03l0,0 c1.7,1.12,3.82,1.67,6.07,1.36c3.74-0.51,6.81-3.45,7.45-7.17c0.66-3.86-1.19-7.37-4.18-9.15c0.19-0.25,3.79-5.1,4.11-6.25h2.92" class="st240"/><circle cx="838.5" cy="527.78" r="27.68" class="st241"/><circle cx="811.9" cy="494.03" r="2" class="st59"/><circle cx="864.9" cy="494.03" r="2" class="st59"/><circle cx="811.9" cy="566.03" r="2" class="st59"/><circle cx="864.9" cy="566.03" r="2" class="st59"/><circle cx="838.39" cy="527.78" r="2.21" class="st59"/><circle cx="838.39" cy="527.78" r="2.21" class="st59"/><circle cx="838.39" cy="527.78" r="5.24" class="st242"/><path d="M859.84,548.44l-29.29-8.99c-0.11-0.03-0.22-0.05-0.34-0.05c-0.75,0-1.35,0.6-1.35,1.35 c0,0.44,0.21,0.82,0.53,1.07l0,0l24.49,17.83l0,0c1,0.66,2.2,1.04,3.49,1.04c3.52,0,6.37-2.85,6.37-6.37 C863.75,551.67,862.13,549.41,859.84,548.44z" class="st183"/><g><circle cx="856.9" cy="554.03" r="4" class="st0"/></g></g><g><path d="M951.9,492.28c0-1.24-1.01-2.25-2.25-2.25H921.4h-28.25c-1.24,0-2.25,1.01-2.25,2.25v75.5 c0,1.24,1.01,2.25,2.25,2.25h28.25h28.25c1.24,0,2.25-1.01,2.25-2.25V492.28z" class="st205"/><path d="M921.4,570.03l0-11.86c2.62-0.07,5.16-0.5,7.56-1.22l6.14,4.47c0.13,0.1,0.26,0.19,0.39,0.28l0.04,0.03l0,0 c1.7,1.12,3.82,1.67,6.07,1.36c3.74-0.51,6.81-3.45,7.45-7.17c0.66-3.86-1.19-7.37-4.18-9.15c0.19-0.25,3.79-5.1,4.11-6.25h2.92" class="st240"/><circle cx="921.53" cy="527.78" r="27.68" class="st241"/><circle cx="894.9" cy="494.03" r="2" class="st59"/><circle cx="947.9" cy="494.03" r="2" class="st59"/><circle cx="894.9" cy="566.03" r="2" class="st59"/><circle cx="947.9" cy="566.03" r="2" class="st59"/><circle cx="921.43" cy="527.78" r="2.21" class="st59"/><circle cx="921.43" cy="527.78" r="2.21" class="st59"/><circle cx="921.43" cy="527.78" r="5.24" class="st242"/><path d="M942.87,548.44l-29.29-8.99c-0.11-0.03-0.22-0.05-0.34-0.05c-0.75,0-1.35,0.6-1.35,1.35 c0,0.44,0.21,0.82,0.53,1.07l0,0l24.49,17.83l0,0c1,0.66,2.2,1.04,3.49,1.04c3.52,0,6.37-2.85,6.37-6.37 C946.78,551.67,945.17,549.41,942.87,548.44z" class="st183"/><g><circle cx="940.9" cy="554.03" r="4" class="st0"/></g></g></g><g><g><line x1="958.86" x2="1046.9" y1="481.53" y2="481.53" class="st243"/><g><circle cx="958.97" cy="481.53" r="2.07" class="st142"/></g></g></g></svg>