<svg xmlns="http://www.w3.org/2000/svg" xmlns:xlink="http://www.w3.org/1999/xlink" id="Layer_1" x="0" y="0" version="1.1" viewBox="0 0 1024 440" style="enable-background:new 0 0 1024 440" xml:space="preserve"><style type="text/css">.st0{fill:#fff}.st142{fill:#f47b67}.st216{fill:#b3b3b3}.st222{font-family:&apos;Lato-Light&apos;}.st223{font-size:8.3545px}.st224{fill:none;stroke:#cecece;stroke-width:.413;stroke-miterlimit:10}.st225{font-family:&apos;Lato-Regular&apos;}.st226{font-size:15.4912px}.st227{font-size:14.3437px}.st228{fill:none;stroke:#ccc;stroke-width:.8606;stroke-miterlimit:10}.st229{font-size:16.8114px}.st230{font-size:19.4027px}</style><path d="M603.77,329.21h-53.55c-1.78,0-3.22-1.44-3.22-3.22v-64.55c0-1.78,1.44-3.22,3.22-3.22h53.55	c1.78,0,3.22,1.44,3.22,3.22v64.55C607,327.77,605.55,329.21,603.77,329.21z" class="st142"/><path d="M677.77,329.21h-53.55c-1.78,0-3.22-1.44-3.22-3.22v-64.55c0-1.78,1.44-3.22,3.22-3.22h53.55	c1.78,0,3.22,1.44,3.22,3.22v64.55C681,327.77,679.55,329.21,677.77,329.21z" class="st142"/><path d="M751.77,329.21h-53.55c-1.78,0-3.22-1.44-3.22-3.22v-64.55c0-1.78,1.44-3.22,3.22-3.22h53.55	c1.78,0,3.22,1.44,3.22,3.22v64.55C755,327.77,753.55,329.21,751.77,329.21z" class="st142"/><path d="M893.77,329.21h-53.55c-1.78,0-3.22-1.44-3.22-3.22v-64.55c0-1.78,1.44-3.22,3.22-3.22h53.55	c1.78,0,3.22,1.44,3.22,3.22v64.55C897,327.77,895.55,329.21,893.77,329.21z" class="st142"/><g><circle cx="772" cy="321.21" r="3" class="st142"/><circle cx="784" cy="321.21" r="3" class="st142"/><circle cx="796" cy="321.21" r="3" class="st142"/><circle cx="808" cy="321.21" r="3" class="st142"/><circle cx="820" cy="321.21" r="3" class="st142"/></g><g><text class="st222 st223" transform="matrix(1 0 0 1 554.5013 343.7041)">CHECKSUM</text></g><g><text class="st222 st223" transform="matrix(1 0 0 1 628.3676 343.7041)">CHECKSUM</text></g><g><text class="st222 st223" transform="matrix(1 0 0 1 702.2328 343.7041)">CHECKSUM</text></g><g><text class="st222 st223" transform="matrix(1 0 0 1 844.1859 343.7041)">CHECKSUM</text></g><g><image style="overflow:visible;opacity:.15" width="781" height="82" transform="matrix(1 0 0 1 127.0155 83.2323)" xlink:href="1E90E58D910B0AAD.png"/><g><rect width="766" height="67" x="131" y="87.21" class="st0"/><rect width="766" height="67" x="131" y="87.21" class="st224"/></g></g><text transform="matrix(1 0 0 1 356.722 116.5439)"><tspan x="0" y="0" class="st225 st226">OBJECT ERASURE-CODED OVER 16 DRIVES</tspan><tspan x="53.21" y="17.21" class="st222 st227">Tolerates up to any 8 disk failures</tspan></text><path d="M131.22,228.58c0-15.39,12.48-27.87,27.87-27.87h294.34c15.39,0,27.87,12.48,27.87,27.87" class="st228"/><path d="M187.77,331.21h-53.55c-1.78,0-3.22-1.44-3.22-3.22v-64.55c0-1.78,1.44-3.22,3.22-3.22h53.55	c1.78,0,3.22,1.44,3.22,3.22v64.55C191,329.77,189.55,331.21,187.77,331.21z" class="st216"/><path d="M261.77,331.21h-53.55c-1.78,0-3.22-1.44-3.22-3.22v-64.55c0-1.78,1.44-3.22,3.22-3.22h53.55	c1.78,0,3.22,1.44,3.22,3.22v64.55C265,329.77,263.55,331.21,261.77,331.21z" class="st216"/><path d="M335.77,331.21h-53.55c-1.78,0-3.22-1.44-3.22-3.22v-64.55c0-1.78,1.44-3.22,3.22-3.22h53.55	c1.78,0,3.22,1.44,3.22,3.22v64.55C339,329.77,337.55,331.21,335.77,331.21z" class="st216"/><path d="M477.77,331.21h-53.55c-1.78,0-3.22-1.44-3.22-3.22v-64.55c0-1.78,1.44-3.22,3.22-3.22h53.55	c1.78,0,3.22,1.44,3.22,3.22v64.55C481,329.77,479.55,331.21,477.77,331.21z" class="st216"/><g><text class="st222 st229" transform="matrix(1 0 0 1 254.4618 235.8027)">DATA BLOCK</text></g><g><circle cx="356" cy="323.21" r="3" class="st216"/><circle cx="368" cy="323.21" r="3" class="st216"/><circle cx="380" cy="323.21" r="3" class="st216"/><circle cx="392" cy="323.21" r="3" class="st216"/><circle cx="405" cy="323.21" r="3" class="st216"/></g><text class="st0 st225 st230" transform="matrix(1 0 0 1 155.787 301.1699)">1</text><text class="st0 st225 st230" transform="matrix(1 0 0 1 229.6527 301.1699)">2</text><text class="st0 st225 st230" transform="matrix(1 0 0 1 303.5179 301.1699)">3</text><text class="st0 st225 st230" transform="matrix(1 0 0 1 445.472 301.1699)">8</text><text class="st222 st223" transform="matrix(1 0 0 1 138.5419 345.1348)">CHECKSUM</text><text class="st222 st223" transform="matrix(1 0 0 1 212.4046 345.1348)">CHECKSUM</text><text class="st222 st223" transform="matrix(1 0 0 1 286.2714 345.1348)">CHECKSUM</text><text class="st222 st223" transform="matrix(1 0 0 1 428.225 345.1348)">CHECKSUM</text><path d="M547.18,228.58c0-15.39,12.48-27.87,27.86-27.87h294.34c15.39,0,27.87,12.48,27.87,27.87" class="st228"/><g><text class="st222 st229" transform="matrix(1 0 0 1 665.1688 235.8027)">PARITY BLOCK</text></g><text class="st0 st225 st230" transform="matrix(1 0 0 1 566.4081 301.1699)">1P</text><text class="st0 st225 st230" transform="matrix(1 0 0 1 640.2733 301.1699)">2P</text><text class="st0 st225 st230" transform="matrix(1 0 0 1 714.1405 301.1699)">3P</text><text class="st0 st225 st230" transform="matrix(1 0 0 1 856.0927 301.1699)">8P</text></svg>