<svg xmlns="http://www.w3.org/2000/svg" xmlns:xlink="http://www.w3.org/1999/xlink" width="16" height="4" preserveAspectRatio="xMidYMid meet" version="1.1" viewBox="4 10 16 4"><defs><path id="mccsKZxKL3" d="M4 12C4 13.1 4.9 14 6 14C7.1 14 8 13.1 8 12C8 10.9 7.1 10 6 10C4.9 10 4 10.9 4 12ZM16 12C16 13.1 16.9 14 18 14C19.1 14 20 13.1 20 12C20 10.9 19.1 10 18 10C16.9 10 16 10.9 16 12ZM10 12C10 13.1 10.9 14 12 14C13.1 14 14 13.1 14 12C14 10.9 13.1 10 12 10C10.9 10 10 10.9 10 12Z"/></defs><g visibility="visible"><g><use fill="#eaeaea" fill-opacity="1" opacity="1" xlink:href="#mccsKZxKL3"/><g><use fill-opacity="0" stroke="#000" stroke-opacity="0" stroke-width="1" opacity="1" xlink:href="#mccsKZxKL3"/></g></g></g></svg>